<svg width="77" height="40" viewBox="0 0 77 40" fill="none" xmlns="http://www.w3.org/2000/svg">
<g clip-path="url(#clip0_248_3002)">
<mask id="mask0_248_3002" style="mask-type:alpha" maskUnits="userSpaceOnUse" x="0" y="4" width="35" height="36">
<path d="M35 18.1925C35 15.3826 32.7744 13.1051 30.0288 13.1051C28.6711 13.1051 27.4397 13.6615 26.5425 14.5644L26.5425 4.09759L18.2572 4.09759C19.3103 5.03051 19.9782 6.40983 19.9782 7.94715C19.9782 10.757 17.7527 13.0346 15.007 13.0346C12.2614 13.0346 10.0359 10.757 10.0359 7.94712C10.0359 6.40983 10.7037 5.03051 11.7568 4.09756L0 4.09756L-4.6917e-07 15.0927C0.91111 13.93 2.31 13.1855 3.87963 13.1855C6.62538 13.1855 8.85083 15.4631 8.85083 18.273C8.85083 21.0828 6.62527 23.3604 3.87966 23.3604C2.31006 23.3604 0.911197 22.6159 -7.40577e-07 21.4532L-1.15907e-06 31.2608L10.3849 31.2608C9.48237 32.1819 8.92456 33.4562 8.92456 34.8638C8.92456 37.6737 11.1501 39.9512 13.8958 39.9512C16.6415 39.9512 18.867 37.6736 18.867 34.8638C18.867 33.4563 18.3091 32.1819 17.4066 31.2608L26.5426 31.2608L26.5426 21.8207C27.4398 22.7238 28.6709 23.28 30.0288 23.28C32.7745 23.28 35 21.0024 35 18.1925Z" fill="black"/>
</mask>
<g mask="url(#mask0_248_3002)">
<g clip-path="url(#clip1_248_3002)">
<circle cx="2" cy="18" r="5" fill="#A05F3A"/>
<path d="M2 22H19V46.8705C19 46.8705 15.3571 49 10.5 49C5.64286 49 2 45.5226 2 45.5226V22Z" fill="#A05F3A"/>
<path d="M18.8114 34.1122C18.8114 39.4968 17.9402 38.9871 12.2776 38.9871C6.61508 38.9871 4.00159 34.6219 4.00159 29.2373C4.00159 23.8526 3.78666 19 8.3574 19C21.2799 19.4762 18.8114 28.7275 18.8114 34.1122Z" fill="#D9B741"/>
<path d="M35.7705 17.1029C35.7705 26.0267 33.6693 37 16.9911 37C0.312798 37 -7.37676 26.0267 -7.37676 17.1029C-11.0587 6.50199 -10.3007 -6 14.7168 -6C39.7342 -6 35.7705 8.17899 35.7705 17.1029Z" fill="#D9B741"/>
<rect x="20" y="22" width="3" height="2" rx="1" fill="#A05F3A"/>
</g>
<path fill-rule="evenodd" clip-rule="evenodd" d="M12.9649 7.20113C18.576 9.06401 26.3537 11.6462 34.5 3.49999C38.5 -0.500008 20.5 -17.5 6 -8.00001C-5.33326 -6.321 -4.68557 0.469843 -4.18571 5.71065C-4.09015 6.7126 -3.99999 7.6579 -3.99999 8.5C-3.99999 9.03285 -3.93033 9.43169 -3.79967 9.71823C-3.96044 10.9513 -4 12.1852 -4 13C-4 15.2091 -2.20914 17 -1.79947e-09 17C2.20914 17 4 15.2091 4 13C6.20914 13 8 11.2091 8 9C8 8.65399 7.95606 8.31825 7.87347 7.99804C7.91549 7.99934 7.95767 8 8 8C9.22373 8 10.3191 7.45047 11.0528 6.58472C11.6574 6.76702 12.2957 6.97896 12.9649 7.20113Z" fill="#522018"/>
<path d="M12.9286 27C12.9286 26.4477 13.3763 26 13.9286 26H23.0714C23.6237 26 24.0714 26.4477 24.0714 27C24.0714 29.7614 21.8329 32 19.0714 32H17.9286C15.1672 32 12.9286 29.7614 12.9286 27Z" fill="#66253C"/>
<path fill-rule="evenodd" clip-rule="evenodd" d="M20.7547 31.7096C20.2287 31.8976 19.662 32 19.0714 32H17.9286C15.2341 32 13.0374 29.8687 12.9325 27.1999C13.6965 26.914 14.8305 26.9469 15.9499 26.9794C16.3056 26.9897 16.6597 27 17 27C19.2092 27 21 28.567 21 30.5C21 30.9252 20.9134 31.3326 20.7547 31.7096Z" fill="#B03E67"/>
<path d="M14 26H24V27C24 27.5523 23.5523 28 23 28H15C14.4477 28 14 27.5523 14 27V26Z" fill="white"/>
<rect x="14" y="16" width="3" height="4" rx="1.5" fill="#1B0B47"/>
<rect x="24" y="16" width="3" height="4" rx="1.5" fill="#1B0B47"/>
<path d="M35 18.1925C35 15.3826 32.7744 13.1051 30.0288 13.1051C28.6711 13.1051 27.4397 13.6615 26.5425 14.5644L26.5425 4.09759L18.2572 4.09759C19.3103 5.03051 19.9782 6.40983 19.9782 7.94715C19.9782 10.757 17.7527 13.0346 15.007 13.0346C12.2614 13.0346 10.0359 10.757 10.0359 7.94712C10.0359 6.40983 10.7037 5.03051 11.7568 4.09756L0 4.09756L-4.6917e-07 15.0927C0.911108 13.93 2.31 13.1855 3.87963 13.1855C6.62538 13.1855 8.85083 15.4631 8.85083 18.273C8.85083 21.0828 6.62527 23.3604 3.87966 23.3604C2.31006 23.3604 0.911195 22.6159 -7.40577e-07 21.4532L-1.15907e-06 31.2608L10.3849 31.2608C9.48237 32.1819 8.92456 33.4562 8.92456 34.8638C8.92456 37.6737 11.1501 39.9512 13.8958 39.9512C16.6415 39.9512 18.867 37.6736 18.867 34.8638C18.867 33.4563 18.3091 32.1819 17.4066 31.2608L26.5426 31.2608L26.5426 21.8207C27.4398 22.7238 28.6709 23.28 30.0288 23.28C32.7745 23.28 35 21.0024 35 18.1925Z" stroke="#F2F2F2"/>
</g>
</g>
<path d="M38.6382 15.2459V6.6539H39.8262V7.2419C40.0742 7.0179 40.3582 6.8499 40.6782 6.7379C40.9982 6.6179 41.3382 6.5579 41.6982 6.5579C42.1302 6.5579 42.5342 6.6419 42.9102 6.8099C43.2862 6.9699 43.6102 7.1899 43.8822 7.4699C44.1622 7.7499 44.3822 8.0819 44.5422 8.4659C44.7022 8.8499 44.7822 9.2619 44.7822 9.7019C44.7822 10.1419 44.7022 10.5579 44.5422 10.9499C44.3822 11.3339 44.1622 11.6659 43.8822 11.9459C43.6102 12.2259 43.2822 12.4499 42.8982 12.6179C42.5142 12.7779 42.1062 12.8579 41.6742 12.8579C41.3382 12.8579 41.0102 12.8059 40.6902 12.7019C40.3782 12.5979 40.0942 12.4499 39.8382 12.2579V15.2459H38.6382ZM41.5422 7.6019C41.1982 7.6019 40.8782 7.6659 40.5822 7.7939C40.2862 7.9219 40.0382 8.1019 39.8382 8.3339V11.0939C40.0302 11.3179 40.2742 11.4939 40.5702 11.6219C40.8742 11.7499 41.1982 11.8139 41.5422 11.8139C42.1262 11.8139 42.6142 11.6139 43.0062 11.2139C43.4062 10.8139 43.6062 10.3139 43.6062 9.7139C43.6062 9.1139 43.4062 8.6139 43.0062 8.2139C42.6062 7.8059 42.1182 7.6019 41.5422 7.6019ZM47.1032 6.6539V10.2779C47.1032 10.7579 47.2392 11.1379 47.5112 11.4179C47.7912 11.6979 48.1592 11.8379 48.6152 11.8379C48.9352 11.8379 49.2232 11.7699 49.4792 11.6339C49.7352 11.4899 49.9472 11.2899 50.1152 11.0339V6.6539H51.3152V12.7619H50.1152V12.1499C49.8752 12.3899 49.5992 12.5739 49.2872 12.7019C48.9832 12.8219 48.6472 12.8819 48.2792 12.8819C47.5832 12.8819 47.0112 12.6579 46.5632 12.2099C46.1232 11.7619 45.9032 11.1859 45.9032 10.4819V6.6539H47.1032ZM52.3758 12.7619V11.8739L55.7958 7.6859H52.4118V6.6539H57.3078V7.5299L53.8758 11.7299H57.3678V12.7619H52.3758ZM58.1532 12.7619V11.8739L61.5732 7.6859H58.1892V6.6539H63.0852V7.5299L59.6532 11.7299H63.1452V12.7619H58.1532ZM65.4436 4.0979V12.7619H64.2436V4.3619L65.4436 4.0979ZM72.1489 12.0659C71.7969 12.3379 71.4289 12.5419 71.0449 12.6779C70.6609 12.8059 70.2409 12.8699 69.7849 12.8699C69.3369 12.8699 68.9169 12.7899 68.5249 12.6299C68.1329 12.4619 67.7929 12.2379 67.5049 11.9579C67.2169 11.6779 66.9889 11.3459 66.8209 10.9619C66.6609 10.5699 66.5809 10.1499 66.5809 9.7019C66.5809 9.2619 66.6609 8.8499 66.8209 8.4659C66.9809 8.0819 67.1969 7.7499 67.4689 7.4699C67.7409 7.1899 68.0649 6.9699 68.4409 6.8099C68.8169 6.6419 69.2169 6.5579 69.6409 6.5579C70.0569 6.5579 70.4449 6.6419 70.8049 6.8099C71.1729 6.9699 71.4849 7.1939 71.7409 7.4819C72.0049 7.7619 72.2129 8.0979 72.3649 8.4899C72.5169 8.8819 72.5929 9.3019 72.5929 9.7499V10.0979H67.7689C67.8489 10.6019 68.0809 11.0219 68.4649 11.3579C68.8489 11.6859 69.3049 11.8499 69.8329 11.8499C70.1289 11.8499 70.4129 11.8019 70.6849 11.7059C70.9569 11.6099 71.1889 11.4779 71.3809 11.3099L72.1489 12.0659ZM69.6169 7.5659C69.1609 7.5659 68.7609 7.7179 68.4169 8.0219C68.0809 8.3259 67.8689 8.7179 67.7809 9.1979H71.4049C71.3169 8.7339 71.1049 8.3459 70.7689 8.0339C70.4409 7.7219 70.0569 7.5659 69.6169 7.5659ZM38.6382 30.2459V21.6539H39.8262V22.2419C40.0742 22.0179 40.3582 21.8499 40.6782 21.7379C40.9982 21.6179 41.3382 21.5579 41.6982 21.5579C42.1302 21.5579 42.5342 21.6419 42.9102 21.8099C43.2862 21.9699 43.6102 22.1899 43.8822 22.4699C44.1622 22.7499 44.3822 23.0819 44.5422 23.4659C44.7022 23.8499 44.7822 24.2619 44.7822 24.7019C44.7822 25.1419 44.7022 25.5579 44.5422 25.9499C44.3822 26.3339 44.1622 26.6659 43.8822 26.9459C43.6102 27.2259 43.2822 27.4499 42.8982 27.6179C42.5142 27.7779 42.1062 27.8579 41.6742 27.8579C41.3382 27.8579 41.0102 27.8059 40.6902 27.7019C40.3782 27.5979 40.0942 27.4499 39.8382 27.2579V30.2459H38.6382ZM41.5422 22.6019C41.1982 22.6019 40.8782 22.6659 40.5822 22.7939C40.2862 22.9219 40.0382 23.1019 39.8382 23.3339V26.0939C40.0302 26.3179 40.2742 26.4939 40.5702 26.6219C40.8742 26.7499 41.1982 26.8139 41.5422 26.8139C42.1262 26.8139 42.6142 26.6139 43.0062 26.2139C43.4062 25.8139 43.6062 25.3139 43.6062 24.7139C43.6062 24.1139 43.4062 23.6139 43.0062 23.2139C42.6062 22.8059 42.1182 22.6019 41.5422 22.6019ZM51.2427 27.0659C50.8907 27.3379 50.5227 27.5419 50.1387 27.6779C49.7547 27.8059 49.3347 27.8699 48.8787 27.8699C48.4307 27.8699 48.0107 27.7899 47.6187 27.6299C47.2267 27.4619 46.8867 27.2379 46.5987 26.9579C46.3107 26.6779 46.0827 26.3459 45.9147 25.9619C45.7547 25.5699 45.6747 25.1499 45.6747 24.7019C45.6747 24.2619 45.7547 23.8499 45.9147 23.4659C46.0747 23.0819 46.2907 22.7499 46.5627 22.4699C46.8347 22.1899 47.1587 21.9699 47.5347 21.8099C47.9107 21.6419 48.3107 21.5579 48.7347 21.5579C49.1507 21.5579 49.5387 21.6419 49.8987 21.8099C50.2667 21.9699 50.5787 22.1939 50.8347 22.4819C51.0987 22.7619 51.3067 23.0979 51.4587 23.4899C51.6107 23.8819 51.6867 24.3019 51.6867 24.7499V25.0979H46.8627C46.9427 25.6019 47.1747 26.0219 47.5587 26.3579C47.9427 26.6859 48.3987 26.8499 48.9267 26.8499C49.2227 26.8499 49.5067 26.8019 49.7787 26.7059C50.0507 26.6099 50.2827 26.4779 50.4747 26.3099L51.2427 27.0659ZM48.7107 22.5659C48.2547 22.5659 47.8547 22.7179 47.5107 23.0219C47.1747 23.3259 46.9627 23.7179 46.8747 24.1979H50.4987C50.4107 23.7339 50.1987 23.3459 49.8627 23.0339C49.5347 22.7219 49.1507 22.5659 48.7107 22.5659ZM52.577 24.7019C52.577 24.2619 52.657 23.8499 52.817 23.4659C52.985 23.0739 53.213 22.7379 53.501 22.4579C53.789 22.1699 54.125 21.9459 54.509 21.7859C54.901 21.6179 55.317 21.5339 55.757 21.5339C56.197 21.5339 56.609 21.6179 56.993 21.7859C57.385 21.9459 57.721 22.1699 58.001 22.4579C58.289 22.7379 58.513 23.0739 58.673 23.4659C58.841 23.8499 58.925 24.2619 58.925 24.7019C58.925 25.1499 58.841 25.5699 58.673 25.9619C58.513 26.3459 58.289 26.6819 58.001 26.9699C57.721 27.2499 57.385 27.4739 56.993 27.6419C56.609 27.8019 56.197 27.8819 55.757 27.8819C55.317 27.8819 54.901 27.8019 54.509 27.6419C54.125 27.4739 53.789 27.2499 53.501 26.9699C53.213 26.6819 52.985 26.3459 52.817 25.9619C52.657 25.5699 52.577 25.1499 52.577 24.7019ZM55.757 26.8259C56.309 26.8259 56.777 26.6219 57.161 26.2139C57.553 25.7979 57.749 25.2939 57.749 24.7019C57.749 24.1099 57.553 23.6099 57.161 23.2019C56.777 22.7939 56.309 22.5899 55.757 22.5899C55.205 22.5899 54.733 22.7939 54.341 23.2019C53.949 23.6099 53.753 24.1099 53.753 24.7019C53.753 25.2939 53.945 25.7979 54.329 26.2139C54.721 26.6219 55.197 26.8259 55.757 26.8259ZM60.0601 30.2459V21.6539H61.2481V22.2419C61.4961 22.0179 61.7801 21.8499 62.1001 21.7379C62.4201 21.6179 62.7601 21.5579 63.1201 21.5579C63.5521 21.5579 63.9561 21.6419 64.3321 21.8099C64.7081 21.9699 65.0321 22.1899 65.3041 22.4699C65.5841 22.7499 65.8041 23.0819 65.9641 23.4659C66.1241 23.8499 66.2041 24.2619 66.2041 24.7019C66.2041 25.1419 66.1241 25.5579 65.9641 25.9499C65.8041 26.3339 65.5841 26.6659 65.3041 26.9459C65.0321 27.2259 64.7041 27.4499 64.3201 27.6179C63.9361 27.7779 63.5281 27.8579 63.0961 27.8579C62.7601 27.8579 62.4321 27.8059 62.1121 27.7019C61.8001 27.5979 61.5161 27.4499 61.2601 27.2579V30.2459H60.0601ZM62.9641 22.6019C62.6201 22.6019 62.3001 22.6659 62.0041 22.7939C61.7081 22.9219 61.4601 23.1019 61.2601 23.3339V26.0939C61.4521 26.3179 61.6961 26.4939 61.9921 26.6219C62.2961 26.7499 62.6201 26.8139 62.9641 26.8139C63.5481 26.8139 64.0361 26.6139 64.4281 26.2139C64.8281 25.8139 65.0281 25.3139 65.0281 24.7139C65.0281 24.1139 64.8281 23.6139 64.4281 23.2139C64.0281 22.8059 63.5401 22.6019 62.9641 22.6019ZM68.5491 19.0979V27.7619H67.3491V19.3619L68.5491 19.0979ZM75.2544 27.0659C74.9024 27.3379 74.5344 27.5419 74.1504 27.6779C73.7664 27.8059 73.3464 27.8699 72.8904 27.8699C72.4424 27.8699 72.0224 27.7899 71.6304 27.6299C71.2384 27.4619 70.8984 27.2379 70.6104 26.9579C70.3224 26.6779 70.0944 26.3459 69.9264 25.9619C69.7664 25.5699 69.6864 25.1499 69.6864 24.7019C69.6864 24.2619 69.7664 23.8499 69.9264 23.4659C70.0864 23.0819 70.3024 22.7499 70.5744 22.4699C70.8464 22.1899 71.1704 21.9699 71.5464 21.8099C71.9224 21.6419 72.3224 21.5579 72.7464 21.5579C73.1624 21.5579 73.5504 21.6419 73.9104 21.8099C74.2784 21.9699 74.5904 22.1939 74.8464 22.4819C75.1104 22.7619 75.3184 23.0979 75.4704 23.4899C75.6224 23.8819 75.6984 24.3019 75.6984 24.7499V25.0979H70.8744C70.9544 25.6019 71.1864 26.0219 71.5704 26.3579C71.9544 26.6859 72.4104 26.8499 72.9384 26.8499C73.2344 26.8499 73.5184 26.8019 73.7904 26.7059C74.0624 26.6099 74.2944 26.4779 74.4864 26.3099L75.2544 27.0659ZM72.7224 22.5659C72.2664 22.5659 71.8664 22.7179 71.5224 23.0219C71.1864 23.3259 70.9744 23.7179 70.8864 24.1979H74.5104C74.4224 23.7339 74.2104 23.3459 73.8744 23.0339C73.5464 22.7219 73.1624 22.5659 72.7224 22.5659Z" fill="white"/>
<defs>
<clipPath id="clip0_248_3002">
<rect width="39.0698" height="40" fill="white"/>
</clipPath>
<clipPath id="clip1_248_3002">
<rect width="64" height="64" fill="white" transform="translate(-16 -19)"/>
</clipPath>
</defs>
</svg>
