<svg width="20" height="16" viewBox="0 0 20 16" fill="none" xmlns="http://www.w3.org/2000/svg">
<path d="M19.9799 1.94599C19.2641 2.26313 18.4953 2.47742 17.687 2.57428C18.521 2.07524 19.145 1.28982 19.4424 0.364561C18.6589 0.829981 17.8013 1.15759 16.907 1.33313C16.3056 0.691017 15.5091 0.265412 14.641 0.122396C13.7729 -0.0206201 12.8819 0.126954 12.1064 0.542206C11.3308 0.957459 10.714 1.61716 10.3517 2.41888C9.98946 3.2206 9.90204 4.11949 10.103 4.97599C8.51531 4.89627 6.96212 4.4836 5.54423 3.76476C4.12634 3.04593 2.87544 2.03698 1.87272 0.803418C1.52986 1.39485 1.33272 2.08056 1.33272 2.81085C1.33234 3.46827 1.49423 4.11563 1.80405 4.69547C2.11386 5.27532 2.562 5.76974 3.10872 6.13485C2.47467 6.11467 1.85461 5.94335 1.30015 5.63513V5.68656C1.30009 6.60862 1.61903 7.50231 2.20288 8.21599C2.78672 8.92966 3.5995 9.41936 4.50329 9.60199C3.91511 9.76117 3.29844 9.78462 2.69986 9.67056C2.95486 10.4639 3.45157 11.1577 4.12046 11.6548C4.78935 12.1518 5.59694 12.4273 6.43015 12.4426C5.01572 13.5529 3.26891 14.1552 1.47072 14.1526C1.15219 14.1526 0.833929 14.134 0.517578 14.0968C2.34284 15.2704 4.46758 15.8933 6.63758 15.8908C13.9833 15.8908 17.999 9.80685 17.999 4.53027C17.999 4.35885 17.9947 4.1857 17.987 4.01427C18.7681 3.4494 19.4424 2.7499 19.9781 1.94856L19.9799 1.94599V1.94599Z" fill="#929292"/>
</svg>
